<?xml version="1.0" standalone="no"?>
<!DOCTYPE svg PUBLIC "-//W3C//DTD SVG 20010904//EN"
 "http://www.w3.org/TR/2001/REC-SVG-20010904/DTD/svg10.dtd">
<svg version="1.0" xmlns="http://www.w3.org/2000/svg"
 width="512.000000pt" height="512.000000pt" viewBox="0 0 512.000000 512.000000"
 preserveAspectRatio="xMidYMid meet">

<g transform="translate(0.000000,512.000000) scale(0.100000,-0.100000)"
fill="#000000" stroke="none">
<path d="M4602 4613 l3 -258 258 -3 257 -2 0 243 c0 224 -2 245 -18 260 -16
15 -49 17 -260 17 l-242 0 2 -257z m209 140 l50 -46 47 46 c54 53 83 59 119
25 36 -34 29 -66 -24 -120 l-46 -47 46 -50 c52 -56 58 -83 25 -118 -33 -36
-68 -30 -125 21 l-50 45 -43 -45 c-50 -50 -87 -57 -120 -24 -33 33 -26 70 24
120 l45 43 -45 50 c-50 56 -56 88 -22 124 33 35 62 29 119 -24z"/>
<path d="M2920 4517 c-49 -16 -123 -93 -138 -143 -8 -29 -12 -133 -12 -338 l0
-297 25 -24 c13 -14 36 -25 50 -25 14 0 37 11 50 25 24 23 25 28 25 170 l0
145 110 0 110 0 0 -145 c0 -142 1 -147 25 -170 13 -14 36 -25 50 -25 14 0 37
11 50 25 l25 24 0 298 c0 181 -4 313 -11 337 -15 54 -80 121 -136 140 -53 18
-170 20 -223 3z m195 -162 c22 -21 25 -33 25 -100 l0 -75 -110 0 -110 0 0 75
c0 67 3 79 25 100 20 21 34 25 85 25 51 0 65 -4 85 -25z"/>
<path d="M3365 4505 l-25 -24 0 -371 0 -371 25 -24 c23 -24 29 -25 163 -25
168 0 213 12 271 75 22 23 44 60 50 81 14 51 14 477 0 528 -6 21 -28 58 -50
81 -58 63 -103 75 -271 75 -134 0 -140 -1 -163 -25z m320 -150 l25 -24 0 -221
0 -221 -25 -24 c-22 -23 -32 -25 -110 -25 l-85 0 0 270 0 270 85 0 c78 0 88
-2 110 -25z"/>
<path d="M4015 4514 c-82 -42 -104 -93 -105 -233 0 -131 19 -178 87 -218 40
-23 60 -27 162 -32 l116 -6 0 -90 0 -90 -163 -5 c-157 -5 -165 -6 -183 -29
-26 -32 -24 -67 6 -97 l25 -25 179 3 179 3 39 31 c65 52 74 81 71 220 -3 111
-5 124 -30 161 -39 59 -82 75 -218 82 l-115 6 -3 70 c-5 123 -16 115 164 115
151 0 156 1 179 25 14 13 25 36 25 50 0 14 -11 37 -25 50 -24 25 -27 25 -192
25 -133 0 -174 -3 -198 -16z"/>
<path d="M783 4443 l-222 -3 -25 -31 -26 -31 0 -233 c0 -128 -3 -247 -6 -264
l-6 -31 976 0 976 0 0 300 0 300 -722 -2 c-398 -2 -823 -4 -945 -5z m112 -258
c16 -15 25 -36 25 -55 0 -38 -39 -80 -73 -80 -42 0 -77 36 -77 80 0 71 76 104
125 55z m280 0 c50 -49 17 -135 -53 -135 -48 0 -82 32 -82 77 0 44 37 83 80
83 19 0 40 -9 55 -25z m267 11 c61 -46 29 -145 -47 -145 -56 0 -94 54 -74 106
13 35 37 52 74 52 17 0 38 -5 47 -13z"/>
<path d="M966 3294 c-14 -13 -16 -65 -16 -414 0 -349 2 -401 16 -414 14 -14
76 -16 530 -16 501 0 515 1 534 20 19 19 20 33 20 410 0 377 -1 391 -20 410
-19 19 -33 20 -534 20 -454 0 -516 -2 -530 -16z"/>
<path d="M2270 3190 c-11 -11 -20 -33 -20 -50 0 -17 9 -39 20 -50 20 -20 33
-20 919 -20 l900 0 20 26 c12 15 21 34 21 44 0 10 -9 29 -21 44 l-20 26 -900
0 c-886 0 -899 0 -919 -20z"/>
<path d="M2300 2953 c-52 -19 -68 -84 -29 -119 20 -18 52 -19 903 -22 616 -2
889 1 907 9 57 23 58 102 3 128 -18 8 -269 11 -897 10 -480 0 -879 -3 -887 -6z"/>
<path d="M2270 2680 c-11 -11 -20 -33 -20 -50 0 -17 9 -39 20 -50 20 -20 33
-20 633 -20 l614 0 21 23 c28 30 28 68 -1 95 l-23 22 -612 0 c-599 0 -612 0
-632 -20z"/>
<path d="M988 2319 c-16 -9 -18 -30 -18 -213 0 -168 3 -206 15 -216 20 -17
3132 -15 3152 2 10 8 13 59 13 208 0 178 -2 198 -18 213 -17 16 -140 17 -1573
17 -1037 -1 -1560 -4 -1571 -11z"/>
<path d="M1050 1733 c-52 -19 -68 -84 -29 -119 20 -18 49 -19 702 -22 475 -2
690 1 708 8 57 24 58 103 3 129 -26 11 -1353 15 -1384 4z"/>
<path d="M2684 1728 c-53 -25 -50 -105 4 -127 19 -8 228 -11 709 -9 653 3 682
4 702 22 28 25 28 77 0 102 -20 18 -48 19 -708 21 -460 1 -693 -2 -707 -9z"/>
<path d="M1045 1490 c-27 -10 -42 -30 -47 -59 -3 -22 -28 -34 -268 -122 -730
-267 -690 -251 -690 -277 0 -10 54 -71 120 -137 68 -68 120 -128 120 -138 0
-11 -62 -85 -140 -167 -77 -81 -140 -154 -140 -162 0 -18 152 -168 170 -168 7
0 77 63 155 140 101 100 149 140 166 140 16 0 59 -36 145 -121 79 -78 129
-120 140 -117 17 3 79 162 253 643 l58 160 669 5 c368 3 676 9 685 13 47 24
43 103 -7 126 -18 8 -208 11 -654 11 -347 0 -630 2 -630 5 0 2 7 23 16 45 l16
40 614 0 c428 0 620 3 637 11 55 25 55 103 1 128 -30 13 -1356 15 -1389 1z"/>
<path d="M2684 1488 c-53 -25 -50 -105 4 -127 19 -8 228 -11 709 -9 653 3 682
4 702 22 28 25 28 77 0 102 -20 18 -48 19 -708 21 -460 1 -693 -2 -707 -9z"/>
<path d="M2684 1248 c-53 -25 -50 -105 4 -127 19 -8 228 -11 709 -9 653 3 682
4 702 22 28 25 28 77 0 102 -20 18 -48 19 -708 21 -460 1 -693 -2 -707 -9z"/>
</g>
</svg>
