<?xml version="1.0" standalone="no"?>
<!DOCTYPE svg PUBLIC "-//W3C//DTD SVG 20010904//EN"
 "http://www.w3.org/TR/2001/REC-SVG-20010904/DTD/svg10.dtd">
<svg version="1.0" xmlns="http://www.w3.org/2000/svg"
 width="512.000000pt" height="512.000000pt" viewBox="0 0 512.000000 512.000000"
 preserveAspectRatio="xMidYMid meet">

<g transform="translate(0.000000,512.000000) scale(0.100000,-0.100000)"
fill="#000000" stroke="none">
<path d="M1520 4641 c-390 -86 -691 -348 -818 -711 -118 -339 -62 -727 148
-1010 61 -83 196 -212 273 -263 332 -220 739 -247 1092 -73 129 64 192 108
299 214 83 82 161 191 220 310 25 50 44 76 62 82 14 6 87 10 162 10 l138 0 69
71 c83 84 109 99 170 99 55 0 76 -10 175 -84 l74 -56 61 59 c73 71 91 81 150
81 56 0 62 -3 187 -96 58 -43 109 -74 123 -74 54 0 67 12 278 262 77 93 77
114 0 205 -152 180 -216 252 -230 257 -8 3 -311 6 -673 6 -492 0 -666 3 -685
12 -19 8 -40 38 -70 98 -150 297 -403 505 -713 587 -134 35 -366 42 -492 14z
m-84 -746 c253 -124 280 -472 49 -630 -264 -179 -614 44 -564 359 22 136 120
249 252 292 70 23 193 13 263 -21z m2643 -171 c41 -34 44 -92 6 -129 l-24 -25
-656 0 -656 0 -24 25 c-39 38 -37 88 6 128 l29 27 644 0 644 0 31 -26z"/>
<path d="M1217 3736 c-73 -27 -117 -92 -117 -171 0 -103 77 -180 180 -180 103
0 180 77 180 180 0 125 -127 214 -243 171z"/>
<path d="M105 2631 c-48 -22 -69 -44 -90 -94 -13 -32 -15 -154 -15 -984 0
-904 1 -950 19 -989 10 -23 36 -54 57 -70 l37 -29 2447 0 2447 0 37 29 c21 16
47 47 57 70 18 39 19 85 19 991 0 901 -1 952 -19 990 -22 48 -44 69 -94 90
-32 13 -176 15 -1206 15 l-1170 0 -58 -51 c-167 -148 -391 -254 -620 -294
-110 -19 -316 -19 -429 0 -228 39 -441 139 -620 291 l-63 54 -348 0 c-316 0
-352 -2 -388 -19z m686 -740 c29 -29 29 -31 29 -140 0 -61 2 -111 6 -111 3 0
32 18 65 41 80 54 112 65 150 49 57 -24 73 -97 31 -143 -9 -11 -55 -44 -102
-74 -47 -30 -87 -57 -89 -59 -3 -3 21 -30 52 -62 69 -70 82 -100 63 -147 -17
-39 -42 -55 -86 -55 -26 0 -46 13 -106 72 l-74 71 -74 -71 c-84 -82 -113 -90
-165 -46 -25 21 -31 34 -31 65 0 33 8 47 60 102 33 36 60 67 60 69 0 3 -40 31
-90 62 -102 65 -120 86 -120 136 0 43 30 77 76 86 24 4 43 -4 107 -45 43 -28
80 -51 82 -51 3 0 5 50 5 111 0 109 0 111 29 140 20 20 39 29 61 29 22 0 41
-9 61 -29z m893 19 c40 -15 51 -47 56 -163 l5 -107 70 47 c86 58 133 64 171
20 23 -27 30 -68 18 -102 -4 -9 -54 -48 -111 -86 l-105 -71 66 -68 c78 -80 85
-112 37 -161 -53 -52 -97 -39 -182 54 l-57 62 -76 -73 c-64 -61 -81 -72 -110
-72 -53 0 -91 37 -91 89 0 37 7 47 65 106 35 35 62 66 59 68 -2 1 -47 31 -100
65 -55 36 -101 74 -108 88 -23 52 -9 94 40 120 40 20 66 13 147 -42 l67 -44 6
107 c6 122 11 138 48 158 31 17 51 18 85 5z m937 -19 c29 -29 29 -31 29 -140
0 -61 2 -111 5 -111 2 0 39 23 82 51 64 42 83 49 108 45 44 -9 79 -49 79 -90
0 -45 -11 -57 -119 -129 -49 -33 -92 -62 -94 -63 -2 -2 23 -33 57 -68 56 -58
62 -69 62 -106 0 -53 -36 -90 -88 -90 -29 0 -45 11 -108 72 l-74 71 -74 -71
c-63 -61 -79 -72 -108 -72 -52 0 -88 37 -88 90 0 37 6 48 62 106 34 35 59 66
57 68 -2 1 -45 30 -94 63 -108 72 -119 84 -119 129 0 41 35 81 79 90 25 4 44
-3 108 -45 43 -28 80 -51 82 -51 3 0 5 50 5 111 0 109 0 111 29 140 20 20 39
29 61 29 22 0 41 -9 61 -29z m898 14 c39 -20 44 -34 50 -158 l6 -107 67 44
c81 55 107 62 147 42 49 -26 63 -68 40 -120 -7 -14 -56 -55 -112 -91 l-100
-67 64 -64 c57 -58 64 -68 64 -105 0 -52 -38 -89 -91 -89 -29 0 -46 11 -110
72 l-76 73 -57 -62 c-85 -93 -129 -106 -182 -54 -48 49 -41 81 37 161 l66 68
-105 71 c-57 38 -107 77 -111 86 -12 34 -5 75 18 102 38 44 85 38 171 -20 l70
-47 5 107 c5 114 17 148 53 163 32 13 55 12 86 -5z m932 -14 c29 -29 29 -31
29 -140 0 -61 2 -111 5 -111 2 0 39 23 82 51 64 41 83 49 107 45 45 -9 76 -43
76 -83 0 -52 -13 -68 -113 -134 -51 -34 -94 -63 -96 -65 -2 -2 24 -33 58 -69
53 -57 61 -71 61 -104 0 -31 -6 -44 -31 -65 -52 -44 -81 -36 -165 46 l-74 71
-74 -71 c-60 -59 -80 -72 -106 -72 -44 0 -69 16 -86 55 -19 47 -6 77 63 147
31 32 55 59 52 61 -2 2 -45 32 -96 65 -94 63 -123 93 -123 125 0 32 28 74 59
87 38 16 70 5 150 -49 33 -23 62 -41 65 -41 4 0 6 51 6 114 l0 114 31 26 c41
35 83 34 120 -3z"/>
</g>
</svg>
