<?xml version="1.0" standalone="no"?>
<!DOCTYPE svg PUBLIC "-//W3C//DTD SVG 20010904//EN"
 "http://www.w3.org/TR/2001/REC-SVG-20010904/DTD/svg10.dtd">
<svg version="1.0" xmlns="http://www.w3.org/2000/svg"
 width="512.000000pt" height="512.000000pt" viewBox="0 0 512.000000 512.000000"
 preserveAspectRatio="xMidYMid meet">

<g transform="translate(0.000000,512.000000) scale(0.100000,-0.100000)"
fill="#000000" stroke="none">
<path d="M1252 5047 c-21 -22 -22 -33 -22 -173 0 -144 1 -151 23 -172 29 -28
67 -28 95 -2 21 20 22 29 22 174 0 147 -1 153 -23 174 -30 28 -68 28 -95 -1z"/>
<path d="M450 4723 c-33 -12 -50 -37 -50 -72 0 -31 11 -46 103 -138 92 -92
107 -103 138 -103 44 0 69 25 69 70 0 29 -14 47 -102 136 -100 100 -127 118
-158 107z"/>
<path d="M2105 4720 c-11 -4 -64 -53 -117 -108 -82 -83 -98 -104 -98 -131 0
-40 31 -71 72 -71 26 0 48 16 136 104 90 88 105 108 105 135 0 51 -53 90 -98
71z"/>
<path d="M1145 4536 c-254 -58 -454 -239 -542 -491 -25 -73 -27 -92 -27 -225
0 -133 2 -152 27 -225 40 -113 99 -209 181 -291 82 -82 178 -141 291 -181 73
-25 92 -27 225 -27 133 0 152 2 225 27 224 78 394 248 472 472 25 73 27 92 27
225 0 133 -2 152 -27 225 -79 226 -249 396 -472 471 -98 33 -281 43 -380 20z"/>
<path d="M4225 4315 c-31 -11 -378 -353 -1726 -1702 -1484 -1484 -1689 -1693
-1698 -1728 -29 -113 72 -214 184 -184 35 9 262 232 1718 1687 923 922 1687
1692 1699 1711 73 117 -46 263 -177 216z"/>
<path d="M72 3867 c-28 -30 -28 -68 1 -95 22 -21 33 -22 173 -22 144 0 151 1
172 23 28 30 28 68 -1 95 -22 21 -33 22 -173 22 -144 0 -151 -1 -172 -23z"/>
<path d="M2180 3870 c-26 -26 -26 -70 0 -98 20 -21 29 -22 175 -22 l154 0 20
26 c12 15 21 34 21 44 0 10 -9 29 -21 44 l-20 26 -155 0 c-141 0 -156 -2 -174
-20z"/>
<path d="M502 3126 c-89 -87 -105 -109 -105 -135 0 -43 28 -71 72 -71 31 0 46
11 138 103 92 92 103 107 103 138 0 44 -25 69 -70 69 -29 0 -47 -14 -138 -104z"/>
<path d="M1910 3210 c-12 -12 -20 -33 -20 -52 0 -26 16 -47 103 -134 119 -121
142 -131 188 -85 46 46 36 69 -85 189 -87 86 -108 102 -134 102 -19 0 -40 -8
-52 -20z"/>
<path d="M1252 2937 c-21 -22 -22 -33 -22 -173 0 -144 1 -151 23 -172 30 -28
68 -28 95 1 21 22 22 33 22 173 0 144 -1 151 -23 172 -30 28 -68 28 -95 -1z"/>
<path d="M3782 2235 c-235 -43 -437 -148 -596 -309 -219 -222 -330 -516 -313
-831 36 -665 675 -1158 1323 -1021 405 86 739 404 838 799 29 115 42 221 24
193 -181 -275 -410 -416 -703 -433 -256 -14 -465 67 -650 252 -185 185 -266
394 -252 650 16 292 167 535 433 702 18 11 17 12 -6 12 -14 -1 -58 -7 -98 -14z"/>
<path d="M4192 1983 c-6 -10 -38 -85 -72 -168 -34 -82 -65 -154 -69 -158 -4
-4 -91 -15 -192 -24 -172 -14 -199 -18 -188 -26 2 -2 68 -58 146 -125 l141
-121 -9 -38 c-55 -228 -77 -328 -74 -331 2 -2 71 36 152 86 82 50 156 94 164
97 11 4 74 -29 174 -89 87 -53 160 -94 163 -92 2 3 -14 83 -37 178 -23 95 -41
178 -41 183 0 6 65 67 145 135 80 68 144 124 142 126 -1 1 -65 7 -142 13 -77
6 -163 14 -192 17 l-51 5 -73 175 c-39 96 -73 174 -75 174 -2 0 -7 -8 -12 -17z"/>
</g>
</svg>
