<?xml version="1.0" standalone="no"?>
<!DOCTYPE svg PUBLIC "-//W3C//DTD SVG 20010904//EN"
 "http://www.w3.org/TR/2001/REC-SVG-20010904/DTD/svg10.dtd">
<svg version="1.0" xmlns="http://www.w3.org/2000/svg"
 width="512.000000pt" height="512.000000pt" viewBox="0 0 512.000000 512.000000"
 preserveAspectRatio="xMidYMid meet">

<g transform="translate(0.000000,512.000000) scale(0.100000,-0.100000)"
fill="#000000" stroke="none">
<path d="M1900 4350 c-30 -30 -25 -70 15 -117 l34 -40 -34 -33 c-41 -39 -46
-79 -15 -110 31 -31 71 -26 110 15 l33 34 40 -34 c48 -41 87 -45 117 -13 29
32 25 63 -16 108 l-36 40 36 40 c42 47 45 72 11 105 -33 34 -58 31 -105 -11
l-40 -36 -40 36 c-45 41 -80 46 -110 16z"/>
<path d="M1311 4174 c-12 -15 -21 -34 -21 -44 0 -34 39 -70 75 -70 36 0 75 36
75 70 0 34 -39 70 -75 70 -24 0 -39 -7 -54 -26z"/>
<path d="M880 3811 c-94 -29 -176 -106 -210 -197 -19 -53 -20 -75 -20 -743 0
-765 -2 -745 68 -836 27 -36 57 -60 106 -85 l69 -35 698 -3 699 -3 0 -559 c0
-547 0 -560 20 -580 26 -26 64 -26 90 0 20 20 20 33 20 580 l0 560 140 0 140
0 0 -560 c0 -547 0 -560 20 -580 26 -26 64 -26 90 0 20 20 20 33 20 580 l0
559 699 3 698 3 69 35 c49 25 79 49 106 85 70 91 68 71 68 836 0 668 -1 690
-20 743 -26 69 -83 134 -151 171 l-54 30 -1670 2 c-919 1 -1681 -2 -1695 -6z
m3371 -156 c84 -60 79 -11 79 -788 0 -573 -2 -693 -14 -715 -19 -36 -65 -78
-99 -91 -40 -15 -3274 -15 -3314 0 -34 13 -80 55 -99 91 -12 22 -14 142 -14
713 0 616 2 691 16 722 20 41 72 83 117 93 17 5 764 7 1659 7 l1626 -2 43 -30z"/>
<path d="M945 3595 l-25 -24 0 -706 c0 -692 0 -705 20 -725 20 -20 33 -20
1620 -20 1587 0 1600 0 1620 20 20 20 20 33 20 725 l0 706 -25 24 -24 25
-1591 0 -1591 0 -24 -25z m3115 -730 l0 -615 -1500 0 -1500 0 0 615 0 615
1500 0 1500 0 0 -615z"/>
<path d="M2816 3266 c-45 -17 -90 -57 -106 -95 -7 -19 -10 -121 -8 -322 3
-330 2 -324 81 -369 34 -20 50 -21 162 -18 137 3 157 11 203 78 20 30 22 45
22 155 0 110 -2 125 -22 155 -48 70 -99 89 -235 90 l-83 0 0 81 c0 119 0 119
124 119 86 0 108 3 127 18 27 23 30 75 5 100 -23 23 -213 29 -270 8z m212
-478 c19 -19 16 -163 -4 -182 -19 -20 -163 -23 -182 -4 -8 8 -12 46 -12 105
l0 93 93 0 c59 0 97 -4 105 -12z"/>
<path d="M3357 3266 c-86 -31 -116 -89 -117 -222 0 -56 6 -108 15 -134 13 -38
13 -47 -1 -91 -12 -36 -15 -75 -12 -147 4 -115 25 -160 90 -193 35 -18 55 -20
162 -17 108 3 125 6 154 26 56 41 72 86 72 207 0 70 -5 117 -14 140 -13 31
-13 39 0 70 19 46 19 224 0 268 -17 41 -62 81 -105 96 -46 15 -197 13 -244 -3z
m218 -226 l0 -95 -95 0 -95 0 -3 84 c-2 46 0 90 2 98 4 11 27 13 98 11 l93 -3
0 -95z m3 -339 c2 -69 -1 -97 -10 -103 -19 -11 -146 -10 -169 2 -17 9 -19 22
-19 100 0 61 4 90 13 94 6 2 50 4 97 3 l85 -2 3 -94z"/>
<path d="M1490 3050 c-19 -19 -20 -33 -20 -285 0 -252 1 -266 20 -285 37 -37
110 -15 110 33 0 23 3 22 63 -18 60 -40 98 -44 127 -13 41 45 26 76 -67 139
l-74 50 80 85 c86 89 96 113 63 154 -32 40 -76 30 -139 -32 l-53 -52 0 105 c0
90 -3 108 -18 122 -25 23 -68 21 -92 -3z"/>
<path d="M1900 2780 c-18 -18 -20 -33 -20 -154 0 -128 1 -136 22 -150 30 -21
71 -20 91 2 13 14 17 38 17 100 l0 82 35 0 35 0 0 -74 c0 -87 22 -126 70 -126
52 0 70 32 70 122 l0 78 35 0 35 0 0 -83 c0 -95 13 -117 67 -117 55 0 63 21
63 168 0 185 20 172 -270 172 -217 0 -231 -1 -250 -20z"/>
<path d="M3725 1628 c-138 -48 -184 -216 -89 -327 93 -108 267 -88 332 39 32
62 28 150 -10 208 -48 72 -153 108 -233 80z m118 -159 c33 -45 1 -99 -58 -99
-59 0 -86 69 -44 111 28 28 76 22 102 -12z"/>
</g>
</svg>
