<?xml version="1.0" standalone="no"?>
<!DOCTYPE svg PUBLIC "-//W3C//DTD SVG 20010904//EN"
 "http://www.w3.org/TR/2001/REC-SVG-20010904/DTD/svg10.dtd">
<svg version="1.0" xmlns="http://www.w3.org/2000/svg"
 width="512.000000pt" height="512.000000pt" viewBox="0 0 512.000000 512.000000"
 preserveAspectRatio="xMidYMid meet">

<g transform="translate(0.000000,512.000000) scale(0.100000,-0.100000)"
fill="#000000" stroke="none">
<path d="M0 4790 l0 -330 389 -2 389 -3 -389 -873 -389 -874 0 -142 c0 -156
13 -227 57 -308 37 -69 130 -153 210 -191 l68 -32 565 0 565 0 68 32 c80 38
173 122 210 191 44 81 57 152 57 308 l0 142 -389 874 -389 873 318 3 317 2 6
103 c12 201 92 406 205 530 l26 27 -947 0 -947 0 0 -330z m1161 -1385 l256
-575 -517 0 -517 0 256 575 c140 316 258 575 261 575 3 0 121 -259 261 -575z"/>
<path d="M2430 5104 c-266 -57 -470 -311 -470 -584 0 -324 276 -600 600 -600
276 0 528 205 585 475 43 204 -16 397 -164 546 -149 149 -347 207 -551 163z"/>
<path d="M3252 5093 c113 -124 193 -329 205 -530 l6 -103 317 -2 318 -3 -389
-873 -389 -874 0 -142 c0 -156 13 -227 57 -308 37 -69 130 -153 210 -191 l68
-32 565 0 565 0 68 32 c80 38 173 122 210 191 44 81 57 152 57 308 l0 142
-389 874 -389 873 389 3 389 2 0 330 0 330 -947 0 -947 0 26 -27z m1229 -1688
l256 -575 -517 0 -517 0 256 575 c140 316 258 575 261 575 3 0 121 -259 261
-575z"/>
<path d="M2210 2595 l0 -1095 -220 0 c-125 0 -242 -5 -272 -11 -86 -19 -158
-59 -224 -124 -93 -92 -134 -198 -134 -345 l0 -70 1200 0 1200 0 0 70 c0 145
-42 252 -135 346 -65 65 -136 105 -223 123 -30 6 -149 11 -272 11 l-220 0 0
1094 0 1095 -57 -20 c-78 -27 -211 -49 -293 -49 -84 0 -224 24 -293 50 -28 11
-53 20 -54 20 -2 0 -3 -493 -3 -1095z"/>
<path d="M1010 475 l0 -175 -150 0 -150 0 0 -150 0 -150 1850 0 1850 0 0 150
0 150 -150 0 -150 0 0 175 0 175 -1550 0 -1550 0 0 -175z"/>
</g>
</svg>
