<?xml version="1.0" standalone="no"?>
<!DOCTYPE svg PUBLIC "-//W3C//DTD SVG 20010904//EN"
 "http://www.w3.org/TR/2001/REC-SVG-20010904/DTD/svg10.dtd">
<svg version="1.0" xmlns="http://www.w3.org/2000/svg"
 width="512.000000pt" height="512.000000pt" viewBox="0 0 512.000000 512.000000"
 preserveAspectRatio="xMidYMid meet">

<g transform="translate(0.000000,512.000000) scale(0.100000,-0.100000)"
fill="#000000" stroke="none">
<path d="M2380 4954 c-160 -18 -230 -29 -330 -51 -900 -197 -1601 -880 -1820
-1775 -52 -211 -64 -322 -64 -568 0 -246 12 -357 64 -568 92 -375 262 -706
515 -1000 382 -445 916 -731 1515 -814 123 -17 478 -16 600 1 605 83 1134 368
1517 815 300 351 486 757 559 1228 25 157 25 518 1 675 -82 521 -313 985 -671
1347 -369 374 -830 607 -1363 691 -93 15 -448 28 -523 19z m1324 -672 c83 -39
149 -105 189 -190 l32 -67 3 -1073 2 -1074 46 -64 c26 -36 58 -97 72 -137 23
-62 26 -88 26 -182 0 -94 -4 -120 -26 -176 -34 -87 -70 -142 -132 -204 -245
-245 -672 -186 -844 116 -39 69 -72 192 -72 269 0 114 47 246 121 341 l29 36
2 1074 3 1074 32 67 c51 108 149 190 260 218 71 18 186 5 257 -28z m-724 -402
c11 -11 20 -29 20 -40 0 -11 -9 -29 -20 -40 -17 -17 -33 -20 -100 -20 -67 0
-83 3 -100 20 -11 11 -20 29 -20 40 0 11 9 29 20 40 17 17 33 20 100 20 67 0
83 -3 100 -20z m2 -357 c22 -19 23 -52 4 -79 -13 -18 -28 -19 -196 -19 -168 0
-183 1 -196 19 -19 26 -18 55 3 78 14 16 34 18 191 18 149 0 178 -2 194 -17z
m-19 -344 c41 -22 49 -59 20 -91 -23 -25 -177 -27 -205 -1 -30 27 -23 69 17
91 26 15 140 15 168 1z m-1125 -316 c58 -50 235 -379 254 -474 36 -175 -110
-349 -292 -349 -182 0 -328 174 -292 349 13 65 96 237 177 366 60 96 87 125
115 125 10 0 27 -8 38 -17z m1142 -53 c24 -24 25 -48 4 -78 -15 -21 -21 -22
-194 -22 -173 0 -179 1 -194 22 -21 30 -20 54 4 78 18 18 33 20 190 20 157 0
172 -2 190 -20z m2 -357 c24 -21 23 -58 -2 -83 -17 -17 -33 -20 -100 -20 -67
0 -83 3 -100 20 -24 24 -26 57 -3 82 23 25 177 27 205 1z m-1924 -130 c58 -50
235 -379 254 -474 36 -175 -110 -349 -292 -349 -182 0 -328 174 -292 349 13
65 96 237 177 366 60 96 87 125 115 125 10 0 27 -8 38 -17z m1560 0 c58 -50
235 -379 254 -474 36 -175 -110 -349 -292 -349 -182 0 -328 174 -292 349 13
65 96 237 177 366 60 96 87 125 115 125 10 0 27 -8 38 -17z m-780 -540 c58
-50 235 -379 254 -474 36 -175 -110 -349 -292 -349 -182 0 -328 174 -292 349
13 65 96 237 177 366 60 96 87 125 115 125 10 0 27 -8 38 -17z"/>
<path d="M3459 4187 c-88 -33 -149 -94 -177 -176 -9 -25 -12 -320 -12 -1107
l0 -1072 -35 -43 c-107 -127 -140 -267 -95 -411 93 -303 471 -397 695 -173
158 159 165 399 15 579 l-40 48 -1 1077 c0 797 -4 1084 -12 1108 -22 59 -72
117 -126 147 -63 34 -156 44 -212 23z m121 -187 c20 -20 20 -33 20 -1159 l0
-1139 29 -11 c95 -40 146 -171 105 -269 -72 -174 -316 -174 -388 0 -41 98 10
229 105 269 l29 11 0 1139 c0 1126 0 1139 20 1159 11 11 29 20 40 20 11 0 29
-9 40 -20z"/>
</g>
</svg>
