<?xml version="1.0" standalone="no"?>
<!DOCTYPE svg PUBLIC "-//W3C//DTD SVG 20010904//EN"
 "http://www.w3.org/TR/2001/REC-SVG-20010904/DTD/svg10.dtd">
<svg version="1.0" xmlns="http://www.w3.org/2000/svg"
 width="512.000000pt" height="512.000000pt" viewBox="0 0 512.000000 512.000000"
 preserveAspectRatio="xMidYMid meet">

<g transform="translate(0.000000,512.000000) scale(0.100000,-0.100000)"
fill="#000000" stroke="none">
<path d="M895 5108 c-27 -5 -87 -27 -133 -48 -108 -51 -222 -161 -270 -260
-66 -137 -62 24 -62 -2240 0 -2264 -4 -2103 62 -2240 48 -99 162 -209 269
-259 46 -22 111 -44 143 -50 41 -8 553 -11 1660 -11 1770 0 1670 -3 1807 66
97 48 211 162 257 254 66 136 62 -26 62 2240 0 2265 4 2104 -62 2240 -45 91
-169 213 -262 258 -133 65 -42 62 -1811 61 -972 -1 -1630 -5 -1660 -11z m1585
-1720 c71 -49 75 -61 75 -243 0 -150 -2 -166 -21 -191 -39 -53 -71 -69 -134
-69 -93 0 -150 54 -158 150 l-4 55 -134 0 -134 0 0 -424 0 -424 35 -6 c19 -4
48 -18 65 -33 86 -72 80 -188 -13 -257 -26 -19 -44 -21 -233 -24 -197 -3 -206
-2 -245 20 -53 30 -83 79 -83 137 1 79 50 141 127 158 l27 6 0 423 0 424 -129
0 -128 0 -6 -51 c-12 -101 -85 -166 -175 -156 -51 6 -87 29 -120 78 -22 32
-23 40 -20 194 3 146 5 163 25 191 47 66 22 64 719 64 l631 0 33 -22z m1486 6
c50 -24 77 -68 82 -133 4 -66 -20 -111 -78 -145 -34 -20 -52 -21 -440 -24
-405 -3 -405 -3 -450 20 -66 34 -93 79 -88 149 5 64 31 108 80 132 29 14 86
17 446 17 362 0 418 -2 448 -16z m-6 -586 c66 -34 93 -79 88 -149 -5 -65 -32
-109 -82 -133 -30 -14 -87 -16 -446 -16 -359 0 -416 2 -446 16 -50 24 -77 68
-82 133 -5 70 22 115 88 149 44 22 49 22 440 22 391 0 396 0 440 -22z m17
-594 c98 -73 98 -195 0 -268 -28 -21 -38 -21 -457 -21 -419 0 -429 0 -457 21
-89 66 -99 179 -21 251 12 12 34 26 48 32 16 6 179 9 442 8 405 -2 417 -3 445
-23z m0 -640 c98 -73 98 -195 0 -268 l-28 -21 -1389 0 -1389 0 -28 21 c-89 66
-99 179 -21 251 12 12 34 26 48 32 16 6 501 9 1402 8 l1377 -2 28 -21z m0
-640 c98 -73 98 -195 0 -268 l-28 -21 -1389 0 -1389 0 -28 21 c-89 66 -99 179
-21 251 12 12 34 26 48 32 16 6 501 9 1402 8 l1377 -2 28 -21z"/>
</g>
</svg>
