<?xml version="1.0" standalone="no"?>
<!DOCTYPE svg PUBLIC "-//W3C//DTD SVG 20010904//EN"
 "http://www.w3.org/TR/2001/REC-SVG-20010904/DTD/svg10.dtd">
<svg version="1.0" xmlns="http://www.w3.org/2000/svg"
 width="512.000000pt" height="512.000000pt" viewBox="0 0 512.000000 512.000000"
 preserveAspectRatio="xMidYMid meet">

<g transform="translate(0.000000,512.000000) scale(0.100000,-0.100000)"
fill="#000000" stroke="none">
<path d="M1194 5086 c-253 -136 -425 -359 -489 -636 -20 -88 -23 -276 -5 -366
50 -257 197 -476 410 -615 l80 -52 0 -857 0 -857 -79 -51 c-176 -115 -317
-297 -379 -492 -65 -204 -60 -446 13 -625 91 -223 253 -403 453 -504 66 -33
91 -37 124 -20 46 25 48 50 48 526 0 291 4 462 11 487 14 52 103 141 155 155
59 16 144 13 189 -8 53 -24 103 -75 129 -131 20 -43 21 -63 24 -516 3 -454 4
-472 23 -492 34 -38 65 -38 137 -3 137 68 289 203 369 328 284 444 150 1036
-295 1307 l-62 37 0 859 0 859 62 37 c397 241 556 756 364 1177 -90 198 -250
365 -438 458 -68 33 -93 34 -133 5 -19 -14 -20 -29 -25 -458 -5 -423 -6 -445
-26 -488 -92 -197 -370 -200 -460 -5 -24 50 -24 51 -24 468 0 444 -3 472 -48
496 -33 18 -63 12 -128 -23z m18 -958 c45 -136 153 -243 286 -284 58 -17 174
-20 233 -4 107 29 209 109 263 207 50 89 56 138 56 501 0 224 3 332 10 332 24
0 179 -168 218 -236 215 -372 94 -840 -273 -1049 -48 -28 -96 -59 -106 -69
-18 -19 -19 -49 -19 -966 0 -917 1 -947 19 -966 10 -10 58 -41 106 -69 367
-209 489 -680 273 -1050 -39 -67 -195 -235 -218 -235 -7 0 -10 121 -11 373 0
422 -5 458 -73 560 -150 224 -465 256 -655 66 -29 -30 -62 -72 -73 -93 -52
-102 -51 -98 -57 -515 l-6 -395 -55 45 c-79 65 -145 151 -195 254 -61 127 -79
217 -72 369 5 119 19 181 62 281 56 131 197 281 334 355 54 28 88 54 97 71 21
42 21 1856 0 1898 -9 17 -43 43 -97 71 -137 74 -278 224 -334 355 -43 100 -57
162 -62 281 -7 152 11 242 72 369 50 103 116 189 195 254 l55 45 6 -355 c4
-284 8 -363 21 -401z"/>
<path d="M1595 3481 c-46 -19 -60 -49 -60 -128 0 -69 2 -76 28 -99 38 -32 86
-32 117 1 18 19 25 40 28 85 6 77 -11 118 -54 136 -19 8 -35 14 -36 13 -2 0
-12 -4 -23 -8z"/>
<path d="M1579 3045 c-15 -8 -32 -29 -38 -46 -8 -22 -11 -237 -11 -696 0 -550
2 -669 14 -698 25 -59 84 -73 133 -31 l28 24 0 707 0 707 -28 24 c-32 27 -60
30 -98 9z"/>
<path d="M3794 5105 c-28 -19 -30 -25 -126 -355 l-83 -285 -3 -782 -2 -783
-99 0 c-93 0 -100 -1 -125 -26 l-26 -27 0 -284 0 -283 55 -110 c30 -60 55
-112 55 -115 0 -3 -27 -5 -60 -5 -79 0 -116 -19 -130 -68 -8 -26 -10 -283 -8
-852 3 -773 4 -817 22 -850 57 -107 79 -120 369 -216 l207 -69 208 69 c288 96
313 109 363 206 l24 45 3 815 c2 569 0 826 -8 852 -14 49 -51 68 -130 68 -33
0 -60 2 -60 5 0 3 25 55 55 115 l55 110 0 283 0 284 -26 27 c-25 25 -32 26
-125 26 l-99 0 -2 783 -3 782 -83 285 c-45 157 -88 298 -94 313 -13 34 -44 57
-78 57 -14 0 -35 -7 -46 -15z m89 -537 l38 -133 -1 -767 0 -768 -80 0 -80 0 0
768 -1 767 38 133 c20 72 40 132 43 132 3 0 23 -60 43 -132z m197 -2438 l-40
-80 -200 0 -200 0 -40 80 -40 80 280 0 280 0 -40 -80z m188 -994 c1 -488 -1
-751 -8 -777 -6 -22 -20 -44 -32 -50 -23 -12 -277 -99 -290 -99 -4 0 -8 376
-8 835 l0 835 168 -2 167 -3 3 -739z m-518 -97 c0 -661 -3 -830 -12 -827 -7 3
-71 24 -143 48 -71 23 -140 52 -152 63 l-23 20 0 764 0 763 165 0 165 0 0
-831z"/>
</g>
</svg>
